<?xml version="1.0" encoding="utf-8"?>
<!-- Generator: Adobe Illustrator 24.2.1, SVG Export Plug-In . SVG Version: 6.00 Build 0)  -->
<svg version="1.1" id="Layer_1" xmlns="http://www.w3.org/2000/svg" xmlns:xlink="http://www.w3.org/1999/xlink" x="0px" y="0px"
	 viewBox="0 0 293 145.5" style="enable-background:new 0 0 293 145.5;" xml:space="preserve">
<style type="text/css">
	.st0{opacity:0.5;}
	.st1{fill:#CACBCC;}
	.st2{fill:#D3D4D3;}
	.st3{fill:none;}
	.st4{opacity:0.15;fill:none;stroke:#221F1F;stroke-width:0.75;stroke-miterlimit:10;enable-background:new    ;}
	.st5{opacity:0.15;}
	.st6{fill:#221F1F;}
	.st7{fill:#606161;}
	.st8{fill:#6EBE4C;}
	.st9{fill:none;stroke:#FFFFFF;stroke-width:0.25;stroke-miterlimit:10;}
	.st10{fill:#FFFFFF;stroke:#FFFFFF;stroke-miterlimit:10;}
	.st11{fill:#515A5A;}
	.st12{opacity:0.15;fill:#221F1F;enable-background:new    ;}
	.st13{fill:none;stroke:#515A5A;stroke-miterlimit:10;}
</style>
<g>
	<g>
		<g class="st0">
			<path class="st1" d="M92.7,127h108.5c0.6,0,1,0.5,1,1v0.1c0,0.6-0.5,1-1,1H92.7c-0.6,0-1-0.5-1-1V128
				C91.7,127.5,92.1,127,92.7,127z"/>
		</g>
		<g class="st0">
			<path class="st1" d="M207.5,127h15.6c0.6,0,1,0.5,1,1v0.1c0,0.6-0.5,1-1,1h-15.6c-0.6,0-1-0.5-1-1V128
				C206.5,127.5,207,127,207.5,127z"/>
		</g>
		<g class="st0">
			<path class="st1" d="M81.8,132.8h28.1c0.6,0,1,0.5,1,1v0.1c0,0.6-0.5,1-1,1H81.8c-0.6,0-1-0.5-1-1v-0.1
				C80.8,133.2,81.2,132.8,81.8,132.8z"/>
		</g>
		<g class="st0">
			<path class="st1" d="M74.1,127h12.9c0.6,0,1,0.5,1,1v0.1c0,0.6-0.5,1-1,1H74.1c-0.6,0-1-0.5-1-1V128C73,127.5,73.5,127,74.1,127z
				"/>
		</g>
		<path class="st2" d="M140.9,10.3L140.9,10.3c1.2-0.1,2.4-0.3,3.6-0.3c0.3,0,0.5-0.3,0.5-0.5c0-0.3-0.3-0.5-0.5-0.5
			c-1.2,0.1-2.4,0.2-3.6,0.3c-0.3,0.1-0.4,0.4-0.3,0.7C140.6,10.1,140.7,10.2,140.9,10.3L140.9,10.3z"/>
		<path class="st2" d="M133.8,11.6h0.1c1.1-0.3,2.3-0.5,3.5-0.8c0.3-0.1,0.4-0.4,0.3-0.7c0,0,0,0,0,0c-0.1-0.2-0.3-0.3-0.5-0.3l0,0
			c-1.2,0.2-2.4,0.5-3.5,0.8c-0.3-0.1-0.6,0.1-0.6,0.4c-0.1,0.3,0.1,0.6,0.4,0.6C133.6,11.6,133.7,11.6,133.8,11.6L133.8,11.6z"/>
		<path class="st2" d="M148,9.8h0.1c1.1,0,2.3,0,3.4,0.1l0,0c0.3-0.1,0.5-0.3,0.4-0.6c0,0,0,0,0,0l0,0c0-0.2-0.2-0.3-0.4-0.4l0,0
			c-1.2-0.1-2.4-0.1-3.5-0.1H148c-0.3,0.1-0.4,0.4-0.4,0.6l0,0C147.7,9.6,147.8,9.7,148,9.8L148,9.8z"/>
		<path class="st2" d="M127,13.8c0.1,0,0.1,0,0.2,0c1.1-0.4,2.2-0.8,3.3-1.2c0.2-0.2,0.3-0.5,0.2-0.7c-0.1-0.2-0.3-0.3-0.5-0.2l0,0
			c-1.1,0.4-2.3,0.8-3.4,1.2c-0.3,0.1-0.3,0.5-0.2,0.7l0,0C126.7,13.7,126.8,13.8,127,13.8L127,13.8z"/>
		<path class="st2" d="M109,25.3c0.1,0,0.3,0,0.3-0.1c0.8-0.8,1.7-1.6,2.6-2.4c0.3-0.1,0.4-0.5,0.2-0.7c0,0,0,0,0,0
			c-0.1-0.2-0.3-0.3-0.6-0.3c-0.1,0-0.2,0.1-0.2,0.2h-0.1c-0.9,0.8-1.8,1.6-2.7,2.4c-0.2,0.2-0.2,0.5,0,0.7
			C108.7,25.2,108.9,25.3,109,25.3z"/>
		<path class="st2" d="M120.5,16.9c0.1,0,0.2,0,0.2-0.1c1-0.6,2.1-1.1,3.2-1.6c0.2-0.2,0.3-0.5,0.1-0.7c0,0,0,0,0,0
			c-0.1-0.2-0.3-0.2-0.6-0.2l0,0c-1.1,0.5-2.1,1.1-3.2,1.6c-0.2,0.2-0.3,0.5-0.1,0.7C120.3,16.8,120.4,16.8,120.5,16.9z"/>
		<path class="st2" d="M155.1,10.2c1.2,0.1,2.4,0.3,3.5,0.5h0.1c0.3,0,0.5-0.2,0.6-0.5c0-0.3-0.2-0.5-0.5-0.6
			c-1.2-0.2-2.4-0.4-3.6-0.5c-0.3-0.1-0.6,0.1-0.6,0.4c-0.1,0.2,0,0.5,0.3,0.6C154.9,10.2,155,10.2,155.1,10.2z"/>
		<path class="st2" d="M114.5,20.7c0.1,0,0.2,0,0.3-0.1c1-0.7,2-1.4,2.9-2c0.3-0.1,0.4-0.4,0.3-0.7c0,0,0,0,0,0
			c-0.1-0.3-0.4-0.4-0.7-0.3c-0.1,0-0.1,0.1-0.2,0.1l0,0c-1,0.6-2,1.3-3,2c-0.2,0.2-0.2,0.5,0,0.8l0,0
			C114.3,20.6,114.4,20.7,114.5,20.7L114.5,20.7z"/>
		<path class="st2" d="M104.2,30.6c0.2,0,0.3-0.1,0.4-0.2c0.7-0.9,1.5-1.8,2.3-2.7c0.1-0.3,0-0.6-0.2-0.7c0,0,0,0,0,0
			c-0.2-0.1-0.4-0.1-0.5,0c-0.8,0.9-1.6,1.8-2.4,2.7c-0.2,0.2-0.1,0.5,0.1,0.7l0,0C103.9,30.6,104.1,30.6,104.2,30.6z"/>
		<path class="st2" d="M189.3,27.6c0.2,0.2,0.6,0.1,0.7-0.1c0,0,0,0,0,0l0,0c0.1-0.2,0.1-0.4,0-0.5c-0.8-0.9-1.7-1.8-2.5-2.6
			c-0.2-0.2-0.5-0.2-0.7,0c0,0,0,0,0,0c-0.2,0.2-0.2,0.5,0,0.7l0,0v0C187.6,25.9,188.5,26.7,189.3,27.6z"/>
		<path class="st2" d="M192.4,29.6c-0.1-0.3-0.4-0.4-0.7-0.3c-0.3,0.1-0.4,0.4-0.3,0.7l0,0c0,0.1,0.1,0.2,0.2,0.2l0,0
			c0.3,0.4,0.6,0.8,0.9,1.1h1.3C193.3,30.8,192.9,30.2,192.4,29.6z"/>
		<path class="st2" d="M184.1,22.7c0.1,0.1,0.2,0.1,0.3,0.1c0.2,0,0.3-0.1,0.4-0.2c0.2-0.2,0.2-0.5-0.1-0.7l0,0
			c-0.9-0.8-1.9-1.5-2.9-2.2c-0.3-0.1-0.6,0-0.7,0.2l0,0c-0.1,0.2-0.1,0.4,0,0.5h0.1C182.2,21.2,183.2,21.9,184.1,22.7z"/>
		<path class="st2" d="M168.9,13.7c1.1,0.4,2.2,0.9,3.3,1.4c0.1,0,0.2,0,0.2,0c0.3,0,0.5-0.3,0.5-0.6c0-0.2-0.1-0.3-0.3-0.4
			c-1.1-0.5-2.2-1-3.3-1.4c-0.2-0.2-0.6-0.1-0.7,0.1l0,0c-0.2,0.2-0.1,0.6,0.1,0.8C168.7,13.6,168.8,13.6,168.9,13.7L168.9,13.7z"/>
		<path class="st2" d="M175.3,16.7c1,0.6,2.1,1.2,3.1,1.8c0.3,0.1,0.6,0,0.7-0.3c0,0,0,0,0,0c0.1-0.2,0-0.5-0.1-0.6
			c-1-0.6-2.1-1.3-3.1-1.9c-0.3-0.1-0.6,0-0.7,0.2l0,0C175,16.3,175.1,16.6,175.3,16.7z"/>
		<path class="st2" d="M162.1,11.5c1.1,0.3,2.3,0.6,3.4,1h0.2c0.3,0,0.5-0.3,0.5-0.6c0-0.2-0.1-0.4-0.3-0.4c-1.1-0.4-2.3-0.7-3.5-1
			c-0.3-0.1-0.5,0.1-0.6,0.4C161.6,11.2,161.8,11.4,162.1,11.5L162.1,11.5z"/>
		<g id="b0bc9903-d3ef-47e2-8a93-40a7c47e5403">
			<rect x="21.6" y="2.7" class="st3" width="251.7" height="140"/>
		</g>
		<circle class="st2" cx="97.3" cy="104.6" r="1.5"/>
		<circle class="st2" cx="101.6" cy="104.6" r="1.5"/>
		<circle class="st2" cx="105.8" cy="104.6" r="1.5"/>
		<circle class="st4" cx="158.9" cy="114.2" r="1.6"/>
		<circle class="st4" cx="107" cy="48.9" r="1.6"/>
		<circle class="st4" cx="175.3" cy="50.4" r="1.6"/>
		<g class="st5">
			<path class="st6" d="M189.7,107.3h-0.9v-0.9c0-0.1-0.1-0.2-0.2-0.2h-0.4c-0.1,0-0.2,0.1-0.2,0.2v0.9h-0.9c-0.1,0-0.2,0.1-0.2,0.2
				v0.3c0,0.1,0.1,0.2,0.2,0.2h0.9v0.9c0,0.1,0.1,0.2,0.2,0.2h0.4c0.1,0,0.2-0.1,0.2-0.2V108h0.8c0.1,0,0.2-0.1,0.2-0.2v-0.3
				C189.9,107.4,189.8,107.3,189.7,107.3z"/>
		</g>
		<g class="st5">
			<path class="st6" d="M169.8,33.2h-0.9v-0.9c0-0.1-0.1-0.2-0.2-0.2h-0.4c-0.1,0-0.2,0.1-0.2,0.2v0.9h-0.8c-0.1,0-0.2,0.1-0.2,0.2
				v0.3c0,0.1,0.1,0.2,0.2,0.2h0.9v0.9c0,0.1,0.1,0.2,0.2,0.2h0.4c0.1,0,0.2-0.1,0.2-0.2v-0.9h0.9c0.1,0,0.2-0.1,0.2-0.2v-0.3
				C169.9,33.3,169.9,33.2,169.8,33.2z"/>
		</g>
		<g class="st5">
			<path class="st6" d="M108.8,111.8h-0.9v-0.9c0-0.1-0.1-0.2-0.1-0.2c0,0,0,0,0,0h-0.3c-0.1,0-0.2,0.1-0.2,0.2v0.9h-0.9
				c-0.1,0-0.2,0.1-0.2,0.2c0,0,0,0,0,0v0.3c0,0.1,0.1,0.2,0.2,0.2h0.9v0.9c0,0.1,0.1,0.2,0.2,0.2h0.3c0.1,0,0.2-0.1,0.2-0.2
				c0,0,0,0,0,0v-0.9h0.9c0.1,0,0.2-0.1,0.2-0.2V112C109,111.9,108.9,111.8,108.8,111.8C108.8,111.8,108.8,111.7,108.8,111.8z"/>
		</g>
	</g>
	<path class="st2" d="M193.8,54.4v1.9h-0.4v3.4h-5.2v-3.4h-0.4v-1.9H193.8z M193.4,55.9v-1.1h-5.2v1.1H193.4z M193,59.2v-3h-4.5v3
		H193z M190.8,57.7v0.4h-1.9v-0.4H190.8z M190.4,58.9h-1.5v-0.4h1.5V58.9z"/>
	<path class="st2" d="M140.3,37.6c0.1,0.2,0.2,0.5,0.2,0.8v0.4c0,0.3-0.1,0.6-0.2,0.8s-0.4,0.4-0.6,0.6c-0.1,0.3-0.3,0.5-0.6,0.6
		s-0.5,0.2-0.8,0.2c-0.3,0-0.5-0.1-0.8-0.2s-0.4-0.3-0.6-0.6h-4.1c-0.1,0.2-0.3,0.4-0.6,0.6s-0.5,0.2-0.8,0.2s-0.5-0.1-0.8-0.2
		s-0.4-0.3-0.6-0.6h-0.9c-0.1,0-0.2,0-0.3-0.1s-0.2-0.1-0.2-0.2s-0.1-0.1-0.2-0.2s-0.1-0.2-0.1-0.3V38c0-0.3,0.1-0.6,0.2-0.9
		s0.3-0.5,0.5-0.7s0.4-0.4,0.7-0.5s0.6-0.2,0.9-0.2h0.2l1.9-1.9c0.1-0.1,0.2-0.2,0.4-0.2s0.3-0.1,0.4-0.1h5.3v0.8h-0.2L140.3,37.6z
		 M131.4,38c0.2,0,0.4,0,0.6,0.1s0.3,0.2,0.5,0.3s0.2,0.3,0.3,0.5s0.1,0.4,0.1,0.6h2.2v-3h-4.5c-0.2,0-0.4,0-0.6,0.1
		s-0.3,0.2-0.5,0.3s-0.2,0.3-0.3,0.5s-0.1,0.4-0.1,0.6v1.5h0.8c0-0.2,0-0.4,0.1-0.6s0.2-0.3,0.3-0.5s0.3-0.2,0.5-0.3
		S131.2,38,131.4,38z M131.4,40.3c0.1,0,0.2,0,0.3-0.1s0.2-0.1,0.2-0.2s0.1-0.1,0.2-0.2s0.1-0.2,0.1-0.3s0-0.2-0.1-0.3
		S132,39.1,132,39s-0.1-0.1-0.2-0.2s-0.2-0.1-0.3-0.1s-0.2,0-0.3,0.1s-0.2,0.1-0.2,0.2s-0.1,0.1-0.2,0.2s-0.1,0.2-0.1,0.3
		s0,0.2,0.1,0.3s0.1,0.2,0.2,0.2s0.1,0.1,0.2,0.2S131.3,40.3,131.4,40.3z M133.6,34.3c-0.1,0-0.2,0-0.3,0.1l-1.4,1.4h3.2v-1.5H133.6
		z M135.9,34.3v1.5h2.7l-0.6-1.3c0-0.1-0.1-0.1-0.1-0.2s-0.1-0.1-0.2-0.1H135.9z M139.7,38.4c0-0.2,0-0.3-0.1-0.5l-0.6-1.4h-3v3h0.8
		c0-0.2,0-0.4,0.1-0.6s0.2-0.3,0.3-0.5s0.3-0.2,0.5-0.3s0.4-0.1,0.6-0.1c0.2,0,0.3,0,0.5,0.1s0.3,0.1,0.4,0.2s0.2,0.2,0.3,0.3
		s0.2,0.3,0.2,0.4c0-0.1,0.1-0.2,0.1-0.3V38.4z M138.2,40.3c0.1,0,0.2,0,0.3-0.1s0.2-0.1,0.2-0.2s0.1-0.1,0.2-0.2s0.1-0.2,0.1-0.3
		s0-0.2-0.1-0.3s-0.1-0.2-0.2-0.2s-0.1-0.1-0.2-0.2s-0.2-0.1-0.3-0.1s-0.2,0-0.3,0.1s-0.2,0.1-0.2,0.2s-0.1,0.1-0.2,0.2
		s-0.1,0.2-0.1,0.3s0,0.2,0.1,0.3s0.1,0.2,0.2,0.2s0.1,0.1,0.2,0.2S138.1,40.3,138.2,40.3z"/>
	<path class="st8" d="M74.5,63.8h32.3v0.7H74.5V63.8z M75.5,69.1v-0.8h32.3v0.8H75.5z M77.5,73.6v-0.8h32.3v0.8H77.5z M83.6,66.8
		v-0.8h24.2v0.8H83.6z M84.6,71.3v-0.8h24.2v0.8H84.6z"/>
	<path class="st2" d="M167.7,96.5c-0.5,0-1,0.1-1.4,0.2s-0.9,0.3-1.3,0.5s-0.8,0.5-1.1,0.8s-0.7,0.6-1,1c-0.1,0.2-0.3,0.3-0.4,0.4
		s-0.3,0.3-0.4,0.4c-0.7,0.6-1.4,1.1-2.2,1.4s-1.6,0.5-2.5,0.5V101c0.5,0,1-0.1,1.5-0.2s0.9-0.3,1.3-0.5s0.8-0.5,1.2-0.8
		s0.7-0.6,1-1c0.1-0.2,0.3-0.3,0.4-0.5s0.3-0.3,0.4-0.4c0.3-0.3,0.6-0.5,1-0.8s0.7-0.4,1.1-0.6s0.8-0.3,1.2-0.4s0.8-0.1,1.3-0.1
		l-0.9-0.9l0.5-0.5l1.8,1.8l-1.8,1.8l-0.5-0.5L167.7,96.5z M162.1,97.6c-0.1,0.1-0.2,0.2-0.2,0.3s-0.2,0.2-0.3,0.3
		c-0.3-0.3-0.6-0.5-0.9-0.7s-0.7-0.4-1-0.5s-0.7-0.3-1.1-0.3s-0.8-0.1-1.2-0.1v-0.8c0.9,0,1.7,0.2,2.5,0.5S161.4,97,162.1,97.6z
		 M167.4,99.6l1.8,1.8l-1.8,1.8l-0.5-0.5l0.9-0.9c-0.4,0-0.9-0.1-1.3-0.2s-0.8-0.2-1.2-0.4s-0.8-0.4-1.1-0.6s-0.7-0.5-1-0.8
		c0.1-0.1,0.2-0.2,0.2-0.3s0.2-0.2,0.3-0.3c0.3,0.3,0.6,0.5,0.9,0.7s0.6,0.4,1,0.5s0.7,0.3,1.1,0.3s0.7,0.1,1.1,0.1l-0.9-0.9
		L167.4,99.6z"/>
	<g>
		<polygon class="st7" points="141.3,67.5 153.9,67.5 134,57.3 131.7,54.1 130.3,54.1 130.4,58.4 		"/>
		<path class="st7" d="M195.9,76.2c0.3-1.8-1.9-2.8-2.8-3.1h-4.2c-0.1,0-0.1,0-0.1,0l-0.7-1.1c0,0,0-0.1,0-0.1c0,0,0,0,0,0h1.8
			l-2.4-0.9c-1.4-0.8-3-1.2-4.6-1.3l-60.6,0.6l-10.2-11l-4-0.2l4.6,15.9l37.3,4.4l-8.3,9.2l-1.4-1.5l-1.9,0.3l0.6,3.5l5,1.4
			c0.4,0.1,21.7-12.2,21.7-12.2l23.4-0.5C196.2,78.9,195.9,76.2,195.9,76.2z M143.2,73.2c0,0.3-0.2,0.5-0.4,0.5
			c-0.3,0-0.5-0.2-0.5-0.5v-0.3c0.1-0.3,0.3-0.4,0.6-0.3c0.2,0,0.3,0.2,0.3,0.3V73.2z M146,73.2c0,0.3-0.2,0.5-0.4,0.5
			c-0.3,0-0.5-0.2-0.5-0.5v-0.3c0.1-0.3,0.3-0.4,0.6-0.3c0.2,0,0.3,0.2,0.3,0.3V73.2z M148.7,73.2c0,0.3-0.2,0.5-0.4,0.5
			c-0.3,0-0.5-0.2-0.5-0.5v-0.3c0.1-0.3,0.3-0.4,0.6-0.3c0.2,0,0.3,0.2,0.3,0.3V73.2z M151.4,73.2c0,0.3-0.2,0.5-0.4,0.5
			c-0.3,0-0.5-0.2-0.5-0.5v-0.3c0.1-0.3,0.3-0.4,0.6-0.3c0.2,0,0.3,0.2,0.3,0.3V73.2z M154.2,73.2c0,0.3-0.2,0.5-0.5,0.5
			c-0.3,0-0.5-0.2-0.5-0.5v-0.3c0-0.3,0.2-0.5,0.5-0.5c0.3,0,0.5,0.2,0.5,0.5V73.2z M156.9,73.2c0,0.3-0.2,0.5-0.4,0.5
			c-0.3,0-0.5-0.2-0.5-0.5v-0.3c0.1-0.3,0.3-0.4,0.6-0.3c0.2,0,0.3,0.2,0.3,0.3V73.2z M159.4,73.8c-0.3,0.1-0.5-0.1-0.6-0.3
			c0-0.1,0-0.2,0-0.3v-0.3c0.1-0.3,0.3-0.4,0.6-0.3c0.2,0,0.3,0.2,0.3,0.3v0.3C159.8,73.4,159.6,73.7,159.4,73.8z M162.3,73.8
			c-0.3,0.1-0.5-0.1-0.6-0.3c0-0.1,0-0.2,0-0.3v-0.3c0.1-0.3,0.3-0.4,0.6-0.3c0.2,0,0.3,0.2,0.3,0.3v0.3
			C162.7,73.4,162.6,73.7,162.3,73.8z M165.4,73.2c0,0.3-0.2,0.5-0.4,0.5c-0.3,0-0.5-0.2-0.5-0.5v-0.3c0.1-0.3,0.3-0.4,0.6-0.3
			c0.2,0,0.3,0.2,0.3,0.3V73.2z M168.1,73.2c0,0.3-0.2,0.5-0.4,0.5c-0.3,0-0.5-0.2-0.5-0.5v-0.3c0.1-0.3,0.3-0.4,0.6-0.3
			c0.2,0,0.3,0.2,0.3,0.3V73.2z M170.8,73.2c0,0.3-0.2,0.5-0.4,0.5c-0.3,0-0.5-0.2-0.5-0.5v-0.3c0.1-0.3,0.3-0.4,0.6-0.3
			c0.2,0,0.3,0.2,0.3,0.3V73.2z M173.6,73.2c0,0.3-0.2,0.5-0.4,0.5c-0.3,0-0.5-0.2-0.5-0.5v-0.3c0.1-0.3,0.3-0.4,0.6-0.3
			c0.2,0,0.3,0.2,0.3,0.3V73.2z M176.4,73.2c0,0.3-0.2,0.5-0.5,0.5s-0.5-0.2-0.5-0.5v-0.3c0-0.3,0.2-0.5,0.5-0.5
			c0.3,0,0.5,0.2,0.5,0.5V73.2z M179.1,73.2c0,0.3-0.2,0.5-0.4,0.5c-0.3,0-0.5-0.2-0.5-0.5v-0.3c0.1-0.3,0.3-0.4,0.6-0.3
			c0.2,0,0.3,0.2,0.3,0.3V73.2z M181.5,73.8c-0.3,0.1-0.5-0.1-0.6-0.3c0-0.1,0-0.2,0-0.3v-0.3c0.1-0.3,0.3-0.4,0.6-0.3
			c0.2,0,0.3,0.2,0.3,0.3v0.3C181.9,73.4,181.8,73.7,181.5,73.8z M187.9,73.1h-0.5L186,73l-0.1-0.1c0,0,0-0.1,0-0.1l0.1-0.7
			c0-0.1,0.1-0.2,0.2-0.1h1.1L187.9,73.1L187.9,73.1z"/>
	</g>
</g>
</svg>
